<svg width="33" height="32" viewBox="0 0 33 32" fill="none" xmlns="http://www.w3.org/2000/svg">
<path d="M3.16797 11C3.16797 9.85069 3.62451 8.74849 4.43717 7.93583C5.24983 7.12317 6.35203 6.66663 7.5013 6.66663H16.168C16.737 6.66663 17.3005 6.77871 17.8263 6.99648C18.352 7.21425 18.8297 7.53344 19.2321 7.93583C19.6345 8.33822 19.9537 8.81592 20.1714 9.34166C20.3892 9.86741 20.5013 10.4309 20.5013 11V21C20.5013 21.569 20.3892 22.1325 20.1714 22.6583C19.9537 23.184 19.6345 23.6617 19.2321 24.0641C18.8297 24.4665 18.352 24.7857 17.8263 25.0034C17.3005 25.2212 16.737 25.3333 16.168 25.3333H7.5013C6.35203 25.3333 5.24983 24.8767 4.43717 24.0641C3.62451 23.2514 3.16797 22.1492 3.16797 21V11ZM26.1773 23.584L21.8346 20.5866V11.416L26.1773 8.41729C27.7253 7.34796 29.8373 8.45729 29.8373 10.3373V21.664C29.8373 23.544 27.7253 24.6533 26.1773 23.584Z" fill="#9CC8FC"/>
</svg>
