<svg width="18" height="22" viewBox="0 0 18 22" fill="none" xmlns="http://www.w3.org/2000/svg">
<path d="M7.76333 20.6698C8.09146 20.9976 8.53625 21.1816 9 21.1816C9.46375 21.1816 9.90854 20.9976 10.2367 20.6698L16.8388 14.0712C17.1671 13.7429 17.3516 13.2976 17.3516 12.8333C17.3516 12.3691 17.1671 11.9238 16.8388 11.5955C16.5105 11.2672 16.0653 11.0828 15.601 11.0828C15.1367 11.0828 14.6915 11.2672 14.3632 11.5955L10.75 15.2075L10.75 1.75001C10.75 1.28589 10.5656 0.840768 10.2374 0.512579C9.90925 0.18439 9.46413 1.50266e-05 9 1.50266e-05C8.53587 1.50266e-05 8.09075 0.18439 7.76256 0.512579C7.43438 0.840768 7.25 1.28589 7.25 1.75001L7.25 15.2075L3.638 11.5955C3.47545 11.433 3.28247 11.304 3.07008 11.216C2.85769 11.1281 2.63006 11.0828 2.40017 11.0828C2.17028 11.0828 1.94265 11.1281 1.73026 11.216C1.51787 11.304 1.32489 11.433 1.16234 11.5955C0.999781 11.7581 0.870837 11.951 0.782863 12.1634C0.694889 12.3758 0.649609 12.6035 0.649609 12.8333C0.649609 13.0632 0.694889 13.2909 0.782863 13.5033C0.870837 13.7156 0.999781 13.9086 1.16234 14.0712L7.76333 20.6698Z" fill="black"/>
</svg>
