<svg width="229" height="72" viewBox="0 0 229 72" fill="none" xmlns="http://www.w3.org/2000/svg">
<circle cx="36" cy="36.001" r="36" fill="#FBFBFB"/>
<path d="M41.8514 11.5996C39.3362 11.5996 37.187 13.465 36.0062 14.751C34.8254 13.465 32.681 11.5996 30.167 11.5996C25.8338 11.5996 22.8086 14.7423 22.8086 19.2409C22.8086 24.1977 26.5658 27.4015 30.2006 30.5004C31.9166 31.965 33.6926 33.4783 35.0546 35.1564C35.2838 35.4373 35.6198 35.5996 35.9726 35.5996H36.0422C36.3962 35.5996 36.731 35.436 36.959 35.1564C38.3234 33.4783 40.0982 31.9638 41.8154 30.5004C45.449 27.4027 49.2086 24.1989 49.2086 19.2409C49.2086 14.7423 46.1834 11.5996 41.8514 11.5996Z" fill="#9CC8FC"/>
<path d="M35.7698 17.8351C35.814 17.5672 36.1993 17.5672 36.2435 17.8351L36.9969 22.4094C37.0136 22.5109 37.0932 22.5905 37.1947 22.6072L41.769 23.3607C42.0369 23.4048 42.0369 23.7901 41.769 23.8343L37.1947 24.5877C37.0932 24.6044 37.0136 24.684 36.9969 24.7855L36.2435 29.3598C36.1993 29.6278 35.814 29.6278 35.7698 29.3598L35.0164 24.7855C34.9997 24.684 34.9201 24.6044 34.8186 24.5877L30.2443 23.8343C29.9763 23.7901 29.9763 23.4048 30.2443 23.3607L34.8186 22.6072C34.9201 22.5905 34.9997 22.5109 35.0164 22.4094L35.7698 17.8351Z" fill="#FBFBFB"/>
<path d="M22.4587 43.9338C11.0076 41.4461 9.82878 29.3424 10.6708 23.6016C5.37823 36.9012 11.6732 45.0899 15.4822 47.5218C25.105 54.2195 30.7183 57.8873 31.7206 59.6016L32.5025 57.4487L33.2843 55.2959C34.7278 46.0149 30.8787 43.0966 28.8338 42.1398C24.7922 40.8002 21.6969 36.9172 20.6544 35.0833C18.7299 38.0494 21.0554 42.2195 22.4587 43.9338Z" fill="#9CC8FC"/>
<path d="M49.5433 43.9338C60.9944 41.4461 62.1732 29.3424 61.3312 23.6016C66.6237 36.9012 60.3288 45.0899 56.5198 47.5218C46.897 54.2195 41.2837 57.8873 40.2813 59.6016L39.4995 57.4487L38.7176 55.2959C37.2742 46.0149 41.1233 43.0966 43.1681 42.1398C47.2097 40.8002 50.3051 36.9172 51.3475 35.0833C53.2721 38.0494 50.9466 42.2195 49.5433 43.9338Z" fill="#9CC8FC"/>
<path d="M110.28 23.3V48.5H106.968V28.808L98.724 42.524H98.292L90.048 28.844V48.5H86.7V23.3H90.48L98.508 36.62L106.5 23.3H110.28ZM117.541 40.94C117.853 42.548 118.585 43.796 119.737 44.684C120.913 45.572 122.353 46.016 124.057 46.016C126.433 46.016 128.161 45.14 129.241 43.388L131.905 44.9C130.153 47.612 127.513 48.968 123.985 48.968C121.129 48.968 118.801 48.08 117.001 46.304C115.225 44.504 114.337 42.236 114.337 39.5C114.337 36.788 115.213 34.532 116.965 32.732C118.717 30.932 120.985 30.032 123.769 30.032C126.409 30.032 128.557 30.968 130.213 32.84C131.893 34.688 132.733 36.92 132.733 39.536C132.733 39.992 132.697 40.46 132.625 40.94H117.541ZM123.769 32.984C122.089 32.984 120.697 33.464 119.593 34.424C118.489 35.36 117.805 36.62 117.541 38.204H129.565C129.301 36.5 128.629 35.204 127.549 34.316C126.469 33.428 125.209 32.984 123.769 32.984ZM151.202 23.3H154.334V48.5H151.202V45.404C149.642 47.78 147.374 48.968 144.398 48.968C141.878 48.968 139.73 48.056 137.954 46.232C136.178 44.384 135.29 42.14 135.29 39.5C135.29 36.86 136.178 34.628 137.954 32.804C139.73 30.956 141.878 30.032 144.398 30.032C147.374 30.032 149.642 31.22 151.202 33.596V23.3ZM144.794 45.944C146.618 45.944 148.142 45.332 149.366 44.108C150.59 42.86 151.202 41.324 151.202 39.5C151.202 37.676 150.59 36.152 149.366 34.928C148.142 33.68 146.618 33.056 144.794 33.056C142.994 33.056 141.482 33.68 140.258 34.928C139.034 36.152 138.422 37.676 138.422 39.5C138.422 41.324 139.034 42.86 140.258 44.108C141.482 45.332 142.994 45.944 144.794 45.944ZM159.403 38.96V35.936H172.543V38.96H159.403ZM187.074 23.3C189.402 23.3 191.334 24.08 192.87 25.64C194.43 27.176 195.21 29.096 195.21 31.4C195.21 33.68 194.43 35.6 192.87 37.16C191.334 38.72 189.402 39.5 187.074 39.5H181.278V48.5H177.93V23.3H187.074ZM187.074 36.368C188.466 36.368 189.618 35.9 190.53 34.964C191.442 34.004 191.898 32.816 191.898 31.4C191.898 29.96 191.442 28.772 190.53 27.836C189.618 26.9 188.466 26.432 187.074 26.432H181.278V36.368H187.074ZM201.586 33.524C202.618 31.292 204.49 30.176 207.202 30.176V33.452C205.666 33.38 204.346 33.788 203.242 34.676C202.138 35.564 201.586 36.992 201.586 38.96V48.5H198.454V30.5H201.586V33.524ZM224.474 46.232C222.626 48.056 220.382 48.968 217.742 48.968C215.102 48.968 212.858 48.056 211.01 46.232C209.186 44.408 208.274 42.164 208.274 39.5C208.274 36.836 209.186 34.592 211.01 32.768C212.858 30.944 215.102 30.032 217.742 30.032C220.382 30.032 222.626 30.944 224.474 32.768C226.322 34.592 227.246 36.836 227.246 39.5C227.246 42.164 226.322 44.408 224.474 46.232ZM217.742 45.908C219.542 45.908 221.054 45.296 222.278 44.072C223.502 42.848 224.114 41.324 224.114 39.5C224.114 37.676 223.502 36.152 222.278 34.928C221.054 33.704 219.542 33.092 217.742 33.092C215.966 33.092 214.466 33.704 213.242 34.928C212.018 36.152 211.406 37.676 211.406 39.5C211.406 41.324 212.018 42.848 213.242 44.072C214.466 45.296 215.966 45.908 217.742 45.908Z" fill="#9CC8FC"/>
</svg>
