<svg width="36" height="36" viewBox="0 0 36 36" fill="none" xmlns="http://www.w3.org/2000/svg">
<path fill-rule="evenodd" clip-rule="evenodd" d="M0.5 18C0.5 8.33475 8.33475 0.5 18 0.5C27.6653 0.5 35.5 8.33475 35.5 18C35.5 27.6653 27.6653 35.5 18 35.5C8.33475 35.5 0.5 27.6653 0.5 18ZM19.75 9.25C19.75 8.78587 19.5656 8.34075 19.2374 8.01256C18.9093 7.68438 18.4641 7.5 18 7.5C17.5359 7.5 17.0908 7.68438 16.7626 8.01256C16.4344 8.34075 16.25 8.78587 16.25 9.25V15.837C16.25 16.8118 16.5215 17.7674 17.0339 18.5967C17.5464 19.426 18.2796 20.0962 19.1515 20.5323L24.2178 23.0645C24.424 23.1757 24.6506 23.2444 24.8839 23.2664C25.1172 23.2885 25.3526 23.2634 25.5761 23.1927C25.7995 23.1221 26.0065 23.0072 26.1847 22.8551C26.363 22.7029 26.5088 22.5164 26.6136 22.3068C26.7184 22.0972 26.7801 21.8686 26.7949 21.6348C26.8097 21.4009 26.7774 21.1664 26.6998 20.9452C26.6223 20.724 26.5011 20.5207 26.3435 20.3472C26.1859 20.1738 25.995 20.0338 25.7823 19.9355L20.7178 17.4015C20.4271 17.2563 20.1826 17.033 20.0117 16.7567C19.8408 16.4804 19.7502 16.1619 19.75 15.837V9.25Z" fill="#9CC8FC"/>
</svg>
