<svg width="80" height="80" viewBox="0 0 80 80" fill="none" xmlns="http://www.w3.org/2000/svg">
<circle cx="40" cy="40" r="40" fill="white"/>
<path d="M46.4946 12.8906C43.6999 12.8906 41.3119 14.9633 39.9999 16.3922C38.6879 14.9633 36.3053 12.8906 33.5119 12.8906C28.6973 12.8906 25.3359 16.3825 25.3359 21.3809C25.3359 26.8885 29.5106 30.4483 33.5493 33.8916C35.4559 35.5189 37.4293 37.2003 38.9426 39.0648C39.1973 39.3769 39.5706 39.5573 39.9626 39.5573H40.0399C40.4333 39.5573 40.8053 39.3756 41.0586 39.0648C42.5746 37.2003 44.5466 35.5175 46.4546 33.8916C50.4919 30.4497 54.6693 26.8899 54.6693 21.3809C54.6693 16.3825 51.3079 12.8906 46.4946 12.8906Z" fill="#9CC8FC"/>
<path d="M39.7388 19.822C39.7879 19.5243 40.216 19.5243 40.2651 19.822L41.1022 24.9045C41.1208 25.0173 41.2092 25.1057 41.322 25.1243L46.4045 25.9615C46.7023 26.0105 46.7023 26.4387 46.4045 26.4877L41.322 27.3249C41.2092 27.3435 41.1208 27.4319 41.1022 27.5447L40.2651 32.6272C40.216 32.9249 39.7879 32.9249 39.7388 32.6272L38.9017 27.5447C38.8831 27.4319 38.7947 27.3435 38.6819 27.3249L33.5994 26.4877C33.3016 26.4387 33.3016 26.0105 33.5994 25.9615L38.6819 25.1243C38.7947 25.1057 38.8831 25.0173 38.9017 24.9045L39.7388 19.822Z" fill="white"/>
<path d="M24.955 48.814C12.2315 46.0499 10.9217 32.6014 11.8573 26.2227C5.97668 41.0001 12.971 50.0986 17.2033 52.8007C27.8953 60.2426 34.1323 64.3179 35.246 66.2227L36.1147 63.8306L36.9835 61.4386C38.5873 51.1263 34.3105 47.8838 32.0384 46.8207C27.5478 45.3323 24.1085 41.0178 22.9502 38.9801C20.8118 42.2758 23.3957 46.9093 24.955 48.814Z" fill="#9CC8FC"/>
<path d="M55.048 48.814C67.7714 46.0499 69.0812 32.6014 68.1456 26.2227C74.0262 41.0001 67.0319 50.0986 62.7996 52.8007C52.1076 60.2426 45.8707 64.3179 44.7569 66.2227L43.8882 63.8306L43.0195 61.4386C41.4157 51.1263 45.6925 47.8838 47.9645 46.8207C52.4551 45.3323 55.8944 41.0178 57.0527 38.9801C59.1911 42.2758 56.6072 46.9093 55.048 48.814Z" fill="#9CC8FC"/>
</svg>
